<svg width="33" height="33" viewBox="0 0 33 33" fill="none" xmlns="http://www.w3.org/2000/svg">
<rect width="33" height="33" rx="6" fill="#4464B5"/>
<path d="M25.652 6.39C25.6747 6.50333 25.6747 6.61667 25.652 6.73C25.652 6.84333 25.618 6.968 25.55 7.104C25.4593 7.42133 25.3573 7.70467 25.244 7.954C25.108 8.27133 24.938 8.54333 24.734 8.77C24.6433 8.906 24.5527 9.042 24.462 9.178C24.394 9.29133 24.326 9.40467 24.258 9.518L23.816 10.096L19.464 16.386L18.682 17.372V26.416C18.6367 26.5293 18.614 26.6427 18.614 26.756C18.614 26.8693 18.6027 26.994 18.58 27.13C18.5347 27.2433 18.5007 27.3567 18.478 27.47C18.4553 27.5607 18.4213 27.6627 18.376 27.776C18.3307 27.8667 18.308 27.9347 18.308 27.98C18.2853 28.0253 18.2627 28.0593 18.24 28.082C18.24 28.1047 18.2287 28.1387 18.206 28.184C18.07 28.4107 17.8773 28.6147 17.628 28.796C17.1293 29.0453 16.5627 29.102 15.928 28.966C15.5653 28.9207 15.2933 28.8073 15.112 28.626C14.9987 28.558 14.908 28.4787 14.84 28.388C14.772 28.2973 14.704 28.1953 14.636 28.082C14.5907 27.946 14.5453 27.8213 14.5 27.708C14.4547 27.5947 14.4207 27.4813 14.398 27.368C14.3527 27.2547 14.33 27.1527 14.33 27.062C14.33 26.9487 14.33 26.8467 14.33 26.756V17.474L13.582 16.318L9.162 10.062L8.788 9.45C8.652 9.246 8.482 9.008 8.278 8.736C8.09667 8.48667 7.938 8.21467 7.802 7.92C7.71133 7.784 7.632 7.648 7.564 7.512C7.51867 7.35333 7.47333 7.19467 7.428 7.036C7.36 6.80933 7.34867 6.58267 7.394 6.356C7.462 6.06133 7.598 5.812 7.802 5.608C8.02867 5.404 8.26667 5.24533 8.516 5.132C8.83333 4.90533 9.196 4.81467 9.604 4.86C9.85333 4.86 10.0687 4.90533 10.25 4.996C10.4313 5.08667 10.6127 5.18867 10.794 5.302C10.998 5.46067 11.1907 5.63066 11.372 5.812C11.576 5.99333 11.7573 6.186 11.916 6.39C12.0973 6.61667 12.2673 6.832 12.426 7.036C12.5847 7.21733 12.7433 7.43267 12.902 7.682L13.004 7.818C13.548 8.54333 14.058 9.246 14.534 9.926C15.01 10.5833 15.5087 11.2973 16.03 12.068C16.0753 12.1133 16.1433 12.204 16.234 12.34C16.3247 12.476 16.4267 12.6347 16.54 12.816C16.6307 12.6573 16.71 12.5213 16.778 12.408C16.8687 12.272 16.9367 12.1813 16.982 12.136C17.5033 11.3653 18.002 10.64 18.478 9.96C18.954 9.28 19.464 8.57733 20.008 7.852L20.076 7.716C20.2573 7.512 20.416 7.308 20.552 7.104C20.7107 6.87733 20.8807 6.65067 21.062 6.424C21.3567 6.016 21.7533 5.66467 22.252 5.37C22.6147 5.12067 22.9887 4.962 23.374 4.894C23.8047 4.84867 24.1787 4.93933 24.496 5.166C24.632 5.25667 24.7567 5.336 24.87 5.404C25.006 5.472 25.1193 5.55133 25.21 5.642C25.3913 5.846 25.5387 6.09533 25.652 6.39Z" fill="white"/>
<path d="M4.38803 29.2857C3.02842 28.5373 2.84957 26.1905 3.09037 25C3.09037 25.7143 3.55457 27.9533 4.38803 28.5714C5.83277 29.6429 7.27757 29.6429 8 30C7.27759 30 5.68561 30 4.38803 29.2857Z" fill="#D9D9D9"/>
</svg>
